<svg xmlns="http://www.w3.org/2000/svg" viewBox="0 0 500 500"><g id="freepik--background-complete--inject-3"><rect y="382.4" width="500" height="0.25" style="fill:#ebebeb"></rect><rect x="416.78" y="398.49" width="33.12" height="0.25" style="fill:#ebebeb"></rect><rect x="322.53" y="401.21" width="8.69" height="0.25" style="fill:#ebebeb"></rect><rect x="396.59" y="389.21" width="19.19" height="0.25" style="fill:#ebebeb"></rect><rect x="52.46" y="390.89" width="43.19" height="0.25" style="fill:#ebebeb"></rect><rect x="104.56" y="390.89" width="6.33" height="0.25" style="fill:#ebebeb"></rect><rect x="131.47" y="395.11" width="93.68" height="0.25" style="fill:#ebebeb"></rect><path d="M237,337.8H43.91a5.71,5.71,0,0,1-5.7-5.71V60.66A5.71,5.71,0,0,1,43.91,55H237a5.71,5.71,0,0,1,5.71,5.71V332.09A5.71,5.71,0,0,1,237,337.8ZM43.91,55.2a5.46,5.46,0,0,0-5.45,5.46V332.09a5.46,5.46,0,0,0,5.45,5.46H237a5.47,5.47,0,0,0,5.46-5.46V60.66A5.47,5.47,0,0,0,237,55.2Z" style="fill:#ebebeb"></path><path d="M453.31,337.8H260.21a5.72,5.72,0,0,1-5.71-5.71V60.66A5.72,5.72,0,0,1,260.21,55h193.1A5.71,5.71,0,0,1,459,60.66V332.09A5.71,5.71,0,0,1,453.31,337.8ZM260.21,55.2a5.47,5.47,0,0,0-5.46,5.46V332.09a5.47,5.47,0,0,0,5.46,5.46h193.1a5.47,5.47,0,0,0,5.46-5.46V60.66a5.47,5.47,0,0,0-5.46-5.46Z" style="fill:#ebebeb"></path><rect x="198.67" y="89" width="106.83" height="141.02" style="fill:#f5f5f5"></rect><polygon points="235 104 235 166 259.7 164.61 262.54 104 235 104" style="fill:#ebebeb"></polygon><polygon points="255 116 293 116 292.67 170.27 272.99 170.58 255 116" style="fill:#e0e0e0"></polygon><polygon points="218 108 228 108 224.5 156.42 212 159.51 218 108" style="fill:#e6e6e6"></polygon><rect x="60.33" y="66.4" width="106.5" height="129.59" style="fill:#e0e0e0"></rect><polygon points="134.47 84.5 78.5 139.51 139.05 149.5 134.47 84.5" style="fill:#ebebeb"></polygon><polygon points="110.89 131.45 112.07 173.7 153 159.42 153 127 110.89 131.45" style="fill:#f0f0f0"></polygon><circle cx="91.07" cy="167.36" r="17.01" transform="translate(-91.67 113.41) rotate(-45)" style="fill:#e6e6e6"></circle><circle cx="136.75" cy="104.75" r="8.25" style="fill:#f5f5f5"></circle><polygon points="87.06 82 110.89 96.5 90.86 113 87.06 82" style="fill:#f5f5f5"></polygon><rect x="325.33" y="72.4" width="106.5" height="129.59" transform="translate(757.17 274.4) rotate(180)" style="fill:#e6e6e6"></rect><polygon points="349.7 169.9 405.67 114.89 345.12 104.9 349.7 169.9" style="fill:#e0e0e0"></polygon><polygon points="404.32 156.85 407.09 114.67 364.95 125.02 361.89 157.3 404.32 156.85" style="fill:#f0f0f0"></polygon><circle cx="349.19" cy="97.5" r="17.01" style="fill:#fafafa"></circle><circle cx="407.06" cy="171.9" r="8.25" style="fill:#e0e0e0"></circle><polygon points="405.11 186.4 381.28 171.9 401.31 155.4 405.11 186.4" style="fill:#f5f5f5"></polygon><rect x="372.28" y="88.89" width="4.68" height="103.48" style="fill:#e0e0e0"></rect><rect x="415.78" y="88.89" width="6.06" height="98.9" style="fill:#ebebeb"></rect><rect x="336.02" y="157.3" width="30.96" height="30.96" style="fill:#ebebeb"></rect></g><g id="freepik--Shadow--inject-3"><ellipse id="freepik--path--inject-3" cx="250" cy="416.24" rx="193.89" ry="11.32" style="fill:#f5f5f5"></ellipse></g><g id="freepik--Canvas--inject-3"><polygon points="258.02 413 251.53 413 232.33 322.65 219.6 262.78 218.91 327.74 218 413 211 413 211 264.43 195.96 336.44 179.97 413 173.48 413 188.3 339.35 211.5 224 220 224 239.31 320 258.02 413" style="fill:#2e353a"></polygon><polygon points="258.02 413 251.53 413 232.33 322.65 219.6 262.78 218.91 327.74 218 413 211 413 211 264.43 195.96 336.44 179.97 413 173.48 413 188.3 339.35 211.5 224 220 224 239.31 320 258.02 413" style="fill:#fff;opacity:0.2;isolation:isolate"></polygon><polygon points="239.31 320 232.33 322.65 219.6 262.78 218.91 327.74 211 330.74 211 264.43 195.96 336.44 188.3 339.35 211.5 224 220 224 239.31 320" style="opacity:0.2;isolation:isolate"></polygon><polygon points="301.02 301.49 187.98 301.49 166.84 143.07 279.88 143.07 301.02 301.49" style="fill:#2e353a"></polygon><polygon points="301.02 301.49 187.98 301.49 166.84 143.07 279.88 143.07 301.02 301.49" style="fill:#fff;opacity:0.4;isolation:isolate"></polygon><polygon points="302.02 296.48 195 296.48 174.99 146.51 282.01 146.51 302.02 296.48" style="fill:#FF849B"></polygon><polygon points="302.02 296.48 195 296.48 174.99 146.51 282.01 146.51 302.02 296.48" style="fill:#fff;opacity:0.8;isolation:isolate"></polygon><polygon points="264.25 228.33 209.81 292 290 292 264.25 228.33" style="fill:#FF849B"></polygon><polyline points="245.71 250.01 261.67 270.65 257.33 280 246 270.43 245.71 248.6" style="fill:#fff;opacity:0.2;isolation:isolate"></polyline><polygon points="266.7 234.39 257.33 292 237.03 260.17 245.71 229.47 266.7 234.39" style="fill:#fff;opacity:0.1;isolation:isolate"></polygon><path d="M252.22,248.14c-11.49,4.19-26.18.6-35.92-9.27C197.67,220,191,172.33,222,165c20.46-4.84,37.7,7.32,44.51,32.46a92.35,92.35,0,0,1,2.93,18.66C270.5,234,262.7,244.33,252.22,248.14Z" style="fill:#FF849B"></path><polygon points="197.67 228.47 215.33 198.37 224.93 231.88 197.67 228.47" style="fill:#FF849B"></polygon><path d="M228,200.37s6.67-12.79,21,2.09C249,202.46,236.33,215.4,228,200.37Z" style="fill:#FF849B"></path><polygon points="246 186 217 186 218.67 192.29 246 186" style="fill:#FF849B"></polygon><polygon points="207 189.15 215.33 198.37 204.48 219.07 196 192.29 207 189.15" style="fill:#FF849B"></polygon><path d="M266,235.94c-9.39,18.42-35.08,17.71-49.67,2.93C197.67,220,191,172.33,222,165c21.53-5.1,39.49,8.64,45.5,36.51,0,0-17.17,18.25-15.5,31.37L253.67,246A26.47,26.47,0,0,0,266,235.94Z" style="fill:#fff;opacity:0.2;isolation:isolate"></path><polygon points="197.67 228.47 215.33 198.37 224.93 231.88 197.67 228.47" style="fill:#fff;opacity:0.2;isolation:isolate"></polygon><polygon points="246 186 217 186 218.67 192.29 246 186" style="fill:#fff;opacity:0.2;isolation:isolate"></polygon><polygon points="207 189.15 215.33 198.37 204.48 219.07 196 192.29 207 189.15" style="fill:#FF849B"></polygon><path d="M217,246l7.93-10.13,6.57,1.9L237,231l15,1.84S252.67,254.67,217,246Z" style="fill:#FF849B"></path><path d="M217,246l35-13.12S247.24,252,217,246Z" style="fill:#fff;opacity:0.2;isolation:isolate"></path><polygon points="240.33 192.29 231.5 202.46 240.33 210.34 246 202.46 240.33 192.29" style="fill:#FF849B"></polygon><path d="M228,200.37s6.67-12.79,21,2.09C249,202.46,236.33,215.4,228,200.37Z" style="fill:#fff;opacity:0.2;isolation:isolate"></path><path d="M207,174.61s-9-10.28-9.33-17.28,45.24-5.66,59.66,0c0,0-4.66,11.88,0,22.94C257.33,180.27,233,166.56,207,174.61Z" style="fill:#FF849B"></path><path d="M259.47,207.64s16.2-10.91,19.2-7.27,5.66,20.85,2.33,21.91-19.67-4.5-19.67-4.5Z" style="fill:#FF849B"></path><polygon points="275.5 213.78 273.44 225.47 282.54 227.04 287 219.54 275.5 213.78" style="fill:#fff;opacity:0.2;isolation:isolate"></polygon><path d="M252.22,248.14l-.21-.79c-7.5-29.52,6.87-44.34,14.5-49.89a92.35,92.35,0,0,1,2.93,18.66C270.5,234,262.7,244.33,252.22,248.14Z" style="fill:#fff;opacity:0.1;isolation:isolate"></path></g><g id="freepik--Statue--inject-3"><path d="M133.8,357.33c-3.24-5.37-5.66-9.77-5.08-12.25,1.72-7.43,8.28-9.58,10.17-20.92C140.75,313,126,299.41,125.57,299h0s21.44-40,9.94-56.5c-.35-.5-.69-1-1-1.46-10.75-15.26-15.14-18.62-15.14-18.62l6.23-12.56-3-2.77-5.95-5.57-8.15,10.25,3,6.94,1.53,3.58S95.5,240,95.06,253.41s10.27,34.67,10.27,34.67-10.6,12.16-15.66,21.82c-2.59,5-3.72,9.29-1.17,10.93,6,3.86,12.66,15.13,10.21,30.09a46.57,46.57,0,0,1-3.65,11.74c-5.43,11.88-4.62,20.74-2.94,26.11a19.12,19.12,0,0,0,2.94,6.06L146,393.49C150,382.51,140.26,368,133.8,357.33Zm-17.15-129.4s13.52,12.72,14.68,22.15a19.44,19.44,0,0,1-.12,5C130,264.38,124,275.93,124,275.93l0-5.85,0-9.4-7.4-12.08-7.15,14,2,13.33s-5.83-7.07-6.17-20S116.65,227.93,116.65,227.93Z" style="fill:#FF849B"></path><path d="M133.8,357.33c-3.24-5.37-5.66-9.77-5.08-12.25,1.72-7.43,8.28-9.58,10.17-20.92C140.75,313,126,299.41,125.57,299h0s21.44-40,9.94-56.5c-.35-.5-.69-1-1-1.46-10.75-15.26-15.14-18.62-15.14-18.62l6.23-12.56-3-2.77-5.95-5.57-8.15,10.25,3,6.94,1.53,3.58S95.5,240,95.06,253.41s10.27,34.67,10.27,34.67-10.6,12.16-15.66,21.82c-2.59,5-3.72,9.29-1.17,10.93,6,3.86,12.66,15.13,10.21,30.09a46.57,46.57,0,0,1-3.65,11.74c-5.43,11.88-4.62,20.74-2.94,26.11a19.12,19.12,0,0,0,2.94,6.06L146,393.49C150,382.51,140.26,368,133.8,357.33Zm-17.15-129.4s13.52,12.72,14.68,22.15a19.44,19.44,0,0,1-.12,5C130,264.38,124,275.93,124,275.93l0-5.85,0-9.4-7.4-12.08-7.15,14,2,13.33s-5.83-7.07-6.17-20S116.65,227.93,116.65,227.93Z" style="fill:#fff;opacity:0.2;isolation:isolate"></path><path d="M131.21,255.1a19.44,19.44,0,0,0,.12-5c-1.16-9.43-14.68-22.15-14.68-22.15S105,243,105.33,255.93s6.17,20,6.17,20l-2-13.33,7.15-14,7.4,12.08,0,9.4c-13.3,22.45-34.33,39.83-34.33,39.83h0c5.06-9.66,15.66-21.82,15.66-21.82s-10.72-21.26-10.27-34.67S113,222.28,113,222.28l-1.53-3.58c4.26-4.57,8.13-8.57,11.13-11.62l3,2.77-6.23,12.56s4.39,3.36,15.14,18.62A56.29,56.29,0,0,1,131.21,255.1Z" style="opacity:0.2;isolation:isolate"></path><path d="M128.72,345.08c-.58,2.48,1.84,6.88,5.08,12.25a79.43,79.43,0,0,1-5.08,6.75c-13.81,16.59-27,23.36-36.6,24.69-1.68-5.37-2.49-14.23,2.94-26.11a46.57,46.57,0,0,0,3.65-11.74C112.3,328.44,125.56,299,125.56,299h0c.45.41,15.18,14,13.32,25.16C137,335.5,130.44,337.65,128.72,345.08Z" style="opacity:0.2;isolation:isolate"></path><rect x="81.33" y="390.36" width="76" height="22.39" style="fill:#2e353a"></rect><rect x="105.33" y="390.36" width="52" height="22.39" style="fill:#fff;opacity:0.2;isolation:isolate"></rect></g><g id="freepik--Character--inject-3"><path d="M409.67,246s6.81,22-1.68,23.93S402.33,246,402.33,246Z" style="fill:#e4897b"></path><path d="M409.67,246s6.81,22-1.68,23.93S402.33,246,402.33,246Z" style="opacity:0.1;isolation:isolate"></path><path d="M382.64,232.07c.7-8.8,8.71-16.55,17.14-18.28,9.11-1.87,17.66,5,20.83,13.17s.49,24.45-11.67,21.23c-4.66-1.23-8.23-4.5-13-5.71-4.13-1.06-8.89-1.58-11.74-5.15A7.28,7.28,0,0,1,382.64,232.07Z" style="fill:#FF849B"></path><path d="M420.61,227c-3.17-8.19-11.72-15-20.83-13.17-8.43,1.73-16.44,9.48-17.14,18.28a7.28,7.28,0,0,0,1.56,5.26c2.85,3.57,7.61,4.09,11.74,5.15,4.77,1.21,8.34,4.48,13,5.71C421.1,251.41,423.79,235.16,420.61,227Zm-19.79-6.47c-.54-2,4.26-4.08,6.27-1.56S402.62,227,400.82,220.49Zm7.72,4.5c.47-2,5.7-1.53,6.25,1.64S407,231.57,408.54,225Zm2.49,8.48c1.11-1.7,5.88.49,5.32,3.66S407.34,239.14,411,233.47Z" style="fill:#fff;opacity:0.6000000000000001;isolation:isolate"></path><path d="M408.54,225c.47-2,5.7-1.53,6.25,1.64S407,231.57,408.54,225Z" style="fill:#fff;opacity:0.2;isolation:isolate"></path><path d="M411,233.47c1.11-1.7,5.88.49,5.32,3.66S407.34,239.14,411,233.47Z" style="fill:#fff;opacity:0.4;isolation:isolate"></path><path d="M395.45,224.26C399,227,410.37,258,411.19,263.5s-2.52,10.5-8.86,3.5-16-26.33-16-26.33Z" style="fill:#e4897b"></path><path d="M285,379l4.75,2.25s31-75,36-75.21,55.91,23.19,68.67,10.21S388.75,272,388.75,272s-30.69-4.38-33,2.55a48.61,48.61,0,0,0-1.3,6.22c-.35,2.12-.59,3.9-.59,3.9h0c-.95-.24-27.76-8.19-39.9,0C301.61,293,285,379,285,379Z" style="fill:#e4897b"></path><path d="M372.4,319.38s-33.79-1.88-45.27,4.54c0,0,5.81,49.25,8.44,79.38l-5.63.64s-24-80.52-23.75-90.77,19-11.25,19-11.25S348.13,315.17,372.4,319.38Z" style="fill:#e4897b"></path><g style="opacity:0.1;isolation:isolate"><path d="M372.4,319.38s-33.79-1.88-45.27,4.54c0,0,5.81,49.25,8.44,79.38l-5.63.64s-24-80.52-23.75-90.77,19-11.25,19-11.25S348.13,315.17,372.4,319.38Z"></path></g><polygon points="337.8 308.23 347.57 322 372.4 319.38 337.8 308.23" style="fill:#FF849B"></polygon><polygon points="337.8 308.23 347.57 322 372.4 319.38 337.8 308.23" style="fill:#fff;opacity:0.4;isolation:isolate"></polygon><path d="M337.1,401.37c0-.75-9.18-.05-9.18-.05s-5.57,5.8-11,7.15-2.36,4.6,3.76,4.53l15.14-.18C340.14,412.76,337.37,409.09,337.1,401.37Z" style="fill:#2e353a"></path><path d="M323.1,403.72a1.21,1.21,0,0,1-.78-.21.88.88,0,0,1-.24-1,1,1,0,0,1,.48-.62,3.7,3.7,0,0,1,2.06-.25c-.75-.39-1.41-.86-1.45-1.35,0-.31.18-.57.6-.77a1.4,1.4,0,0,1,1.18-.05c1.25.5,2,2.46,2.08,2.57s0-.06,0-.06h0v.16s0-.1,0-.08h0s0-.08,0-.08h0s0,.27-.07.29C326.42,402.52,324.37,403.72,323.1,403.72Zm.85-1.61a2.44,2.44,0,0,0-1.14.21.52.52,0,0,0-.26.33c-.09.36,0,.45.07.48.44.35,2.11-.17,3.45-.76A11.08,11.08,0,0,0,324,402.11Zm.46-2.24a1,1,0,0,0-.43.1c-.12.06-.33.18-.32.31,0,.41,1.34,1.11,2.71,1.61a4,4,0,0,0-1.6-1.95A.92.92,0,0,0,324.41,399.87Z" style="fill:#FF849B"></path><path d="M292.28,378.55c.16-.73-8.89-2.3-8.89-2.3s-6.82,4.25-12.44,4.22-3.42,3.88,2.53,5.32l14.71,3.54C292.42,390.35,290.65,386.11,292.28,378.55Z" style="fill:#2e353a"></path><path d="M279.23,377.5a2.36,2.36,0,0,1-1.81-.51.86.86,0,0,1,0-1,1,1,0,0,1,.62-.49,3.79,3.79,0,0,1,2.05.27c-.63-.56-1.16-1.19-1.07-1.66.06-.31.31-.51.77-.61a1.08,1.08,0,0,1,1,.25c1.09.79,1.19,3.05,1.19,3.15h0V377h.31v0h0V377H282v0h0v0h0v0s.13,0,.11,0,.05,0,0,0h0s0,.09-.08.1A14.43,14.43,0,0,1,279.23,377.5Zm-.68-1.58a1.36,1.36,0,0,0-.36.05.53.53,0,0,0-.33.25c-.17.33-.08.44-.05.48.34.45,2.09.35,3.53.11A7.88,7.88,0,0,0,278.55,375.92Zm1.58-2-.23,0c-.13,0-.36.1-.38.23-.08.4,1,1.4,2.23,2.22a4,4,0,0,0-1.07-2.28A.88.88,0,0,0,280.13,374Z" style="fill:#FF849B"></path><path d="M331.39,280s-2.39,21,2.11,29.29c0,0,20.34,10.75,41.17,11.75s36.34-7.72,14.08-49c0,0-6.45-5-17.48-5s-15.52,7.56-15.52,7.56l-3.87,7.69Z" style="fill:#FF849B"></path><path d="M331.39,280s-2.39,21,2.11,29.29c0,0,20.34,10.75,41.17,11.75s36.34-7.72,14.08-49c0,0-6.45-5-17.48-5s-15.52,7.56-15.52,7.56l-3.87,7.69Z" style="fill:#fff;opacity:0.6000000000000001;isolation:isolate"></path><path d="M356.66,185.93s-4.16-.05-5.16-5.37,3.9-6.43,5.16-5.79" style="fill:none;stroke:#2e353a;stroke-linecap:round;stroke-linejoin:round;stroke-width:0.5px"></path><path d="M366.9,210.27a12.19,12.19,0,0,1-3.39.73h0c-2.36,0-4.22-.31-5.68-1.4-3.3-2.47-4.5-7.93-4.59-14.67-.14-8.8,2.21-13.58,10.7-14.31C378,179.41,381.05,205.85,366.9,210.27Z" style="fill:#e4897b"></path><path d="M370.53,206.19a17,17,0,0,1-7,4.81h0c-2.36,0-4.22-.3-5.68-1.39C362.1,206.13,370.53,206.19,370.53,206.19Z" style="opacity:0.2;isolation:isolate"></path><path d="M358.21,185.21S353.88,194,361.26,199c0,0,5.06,8.4,13.21,7.27s13-13.86,7.6-24.93c-5.1-10.5-22.49-4.68-22.49-4.68-7.42-3.37-10.43,6.27-4.92,9.28A5.76,5.76,0,0,1,358.21,185.21Z" style="fill:#2e353a"></path><path d="M365.42,198.67c-2.44-2.5-9.76-13.3-5.84-22,0,0,6.92-2.82,11.84-1.55,0,0-6.14,20.57,7.11,29.15A18.68,18.68,0,0,1,365.42,198.67Z" style="fill:#FF849B"></path><path d="M377.42,203.83s5-4.16,8.91,2c0,0-4.16,1.57-7.41-.54,0,0,1.16,1.81.33,5.05C379.25,210.34,375.75,209.08,377.42,203.83Z" style="fill:#FF849B"></path><path d="M361.22,197.53s.12,5.14,3.46,8" style="fill:none;stroke:#2e353a;stroke-linecap:round;stroke-linejoin:round;stroke-width:0.5px"></path><path d="M358.29,196.4c-.1-1.54,1.06-4.24,3.64-4.1s4.54,6.11-1.88,8C359.13,200.6,358.49,199.61,358.29,196.4Z" style="fill:#e4897b"></path><path d="M377,183.08s1.2-6.75,8.36-7,6,6.34,8,7.75,3.25.34,4.75,2.42-.83,4.5-.75,6.58,2.67,2.5,2.67,5.34-3,3.08-4.08,6.5.91,3.68.91,5.67-.66,3.24-3.16,3.16c0,0,2.06-1.17.7-2.5s-4.9-2.58-5.89-5.25,3.44-5.58-.65-8.42-6.25-.91-7.75-6.5S377,183.08,377,183.08Z" style="fill:#2e353a"></path><path d="M366.17,224.38c6.19.76,9.76-6.08,9.76-6.08-5.84-4-2.35-12.11-2.35-12.11-5.66-2.35-9.94,2.4-9.94,2.4a28.74,28.74,0,0,1,1,4c1,5.87-1.66,6.33-1.66,6.33A4,4,0,0,0,366.17,224.38Z" style="fill:#e4897b"></path><path d="M388.75,272s.7-33,6.7-47.75a80.86,80.86,0,0,0-16.92-7.43c-11.08-3.35-24.8-5-29-3.33,0,0-2.86,38,6.2,61.06C355.75,274.56,367.82,274.26,388.75,272Z" style="fill:#FF849B"></path><path d="M388.75,272s.7-33,6.7-47.75a80.86,80.86,0,0,0-16.92-7.43c-11.08-3.35-24.8-5-29-3.33,0,0-2.86,38,6.2,61.06C355.75,274.56,367.82,274.26,388.75,272Z" style="opacity:0.2;isolation:isolate"></path><path d="M302,190.11c-1.3-1.65-28.85,9-28.85,9l.29.65S303,191.38,302,190.11Z" style="fill:#2e353a"></path><path d="M273.15,199.16a4.79,4.79,0,0,0-2.46,0,2.11,2.11,0,0,1-2.44-1.35s1.13,5.38,5.19,2Z" style="fill:#FF849B"></path><path d="M352.88,213.5c-6.46-3.34-29.44,13.17-34.38,12.67-7.53-.77-19.39-25.8-19.39-25.8L294,202.46s9.17,31.71,20.67,34.87c9.1,2.51,34.52-6.49,34.51-7.33C349.18,230,360.49,217.44,352.88,213.5Z" style="fill:#e4897b"></path><path d="M299.67,201.51s-2.84-8.27-4.17-10.81-8.33,3.79-8.5,5.63,7.17,9.5,8.67,9.17S299.67,201.51,299.67,201.51Z" style="fill:#e4897b"></path><polygon points="365.4 327 365.76 342.57 367.4 413 372.81 413 374.44 342.57 374.8 327 365.4 327" style="fill:#263238"></polygon><polygon points="365.4 327 365.76 342.57 367.4 413 372.81 413 374.44 342.57 374.8 327 365.4 327" style="fill:#fff;opacity:0.1;isolation:isolate"></polygon><polygon points="365.4 327 365.76 343 374.44 343 374.8 327 365.4 327" style="opacity:0.2;isolation:isolate"></polygon><polygon points="336.02 412.75 341.02 328.1 349.19 328.1 342.19 412.75 336.02 412.75" style="fill:#263238"></polygon><polygon points="342.21 412.75 336.03 412.75 340.57 335.7 341.02 328 349.19 328 348.56 335.7 342.21 412.75" style="fill:#fff;opacity:0.2;isolation:isolate"></polygon><polygon points="349.19 328 348.56 336 340.57 336 341.02 328 349.19 328" style="opacity:0.2;isolation:isolate"></polygon><polygon points="398.02 412.75 391.02 328.1 399.19 328.1 404.19 412.75 398.02 412.75" style="fill:#263238"></polygon><polygon points="398 412.75 391.65 335.7 391.02 328 399.19 328 399.64 335.7 404.18 412.75 398 412.75" style="fill:#fff;opacity:0.2;isolation:isolate"></polygon><polygon points="391.02 328 391.65 336 399.64 336 399.19 328 391.02 328" style="opacity:0.2;isolation:isolate"></polygon><path d="M336.65,319.33h66.92a0,0,0,0,1,0,0V326a5,5,0,0,1-5,5H341.65a5,5,0,0,1-5-5v-6.69A0,0,0,0,1,336.65,319.33Z" transform="translate(740.21 650.36) rotate(180)" style="fill:#FF849B"></path><rect x="333.44" y="325.18" width="73.33" height="5.84" rx="2.01" transform="translate(740.21 656.2) rotate(180)" style="fill:#263238"></rect><rect x="333.44" y="325.18" width="73.33" height="5.84" rx="2.01" transform="translate(740.21 656.2) rotate(180)" style="fill:#fff;opacity:0.4;isolation:isolate"></rect><path d="M353.87,278.31s-1.91-1.66,1.23-5.49,30.8-7.27,40.35-2.79l-.12,7.22s14.28,31,16,62.25c0,0-7.31,3.25-14.81,0s-22.9,6.27-31.82,4.13c0,0,6.34-42.56-.51-57.38C364.17,286.25,360.23,277.86,353.87,278.31Z" style="fill:#2e353a"></path><path d="M355.3,273.92s-8.92,1.08-8.67,10.21,8.62,16,6.5,22.37c0,0,5.37,1.61,8.12-.57,0,0,3.75-7.55-2-13.68s-9.79-12.66-3.15-15.08Z" style="fill:#2e353a"></path></g></svg>
