<svg width="1640" height="906" viewBox="0 0 1640 906" fill="none" xmlns="http://www.w3.org/2000/svg">
<path d="M788.5 751C719 754.667 574.6 720.2 553 553C531.4 385.8 321.333 279.833 219 262C98.0001 226.5 -6.7 174.9 0.5 -13.5C7.7 -201.9 102.833 -179.333 147.5 -183L845.5 -241.5L1581.5 -108L1681.5 -81C1703.5 -8.5 1718.2 142.6 1601 167C1483.8 191.4 1465.17 271.5 1470.5 308.5C1492 357.167 1558.2 442.4 1651 394C1743.8 345.6 1773 425.167 1776 471C1801.5 557.333 1823.6 728.9 1708 724.5C1592.4 720.1 1484.83 808.333 1445.5 853C1388.33 899.833 1243.3 958.2 1120.5 817C997.7 675.8 848 714.167 788.5 751Z" fill="#FFE7E7"/>
</svg>
