<svg width="1920" height="1080" viewBox="0 0 1920 1080" fill="none" xmlns="http://www.w3.org/2000/svg">
<g clip-path="url(#clip0_1_2)">
<rect width="1920" height="1080" fill="#F0B3AB"/>
<path d="M1068.5 751C999 754.667 854.6 720.2 833 553C811.4 385.8 601.333 279.833 499 262C378 226.5 273.3 174.9 280.5 -13.5C287.7 -201.9 382.833 -179.333 427.5 -183L1125.5 -241.5L1861.5 -108L1961.5 -81C1983.5 -8.5 1998.2 142.6 1881 167C1763.8 191.4 1745.17 271.5 1750.5 308.5C1772 357.167 1838.2 442.4 1931 394C2023.8 345.6 2053 425.167 2056 471C2081.5 557.333 2103.6 728.9 1988 724.5C1872.4 720.1 1764.83 808.333 1725.5 853C1668.33 899.833 1523.3 958.2 1400.5 817C1277.7 675.8 1128 714.167 1068.5 751Z" fill="#FFE7E7"/>
</g>
<defs>
<clipPath id="clip0_1_2">
<rect width="1920" height="1080" fill="white"/>
</clipPath>
</defs>
</svg>
