<svg width="1920" height="1080" viewBox="0 0 1920 1080" fill="none" xmlns="http://www.w3.org/2000/svg">
<g clip-path="url(#clip0_143_26)">
<rect width="1920" height="1080" fill="#FFE7E7"/>
<path d="M113.5 1413C83.6667 1334.83 279.7 1110.4 550.5 990C889 839.5 1204 1071.82 1359 756.824C1483 504.824 1871.17 385.333 1998 412C2045 447.833 2120.2 771.5 2421 557.5C2721.8 343.5 2712.17 1077.99 2674.5 1569.82L113.5 1413Z" fill="#F0B3AB"/>
<path d="M607 303.5C691.536 343.51 863.906 364.183 1016 303.5C1151.88 249.286 1309.08 127.354 1335.5 83C1474.05 20.1174 1900.25 83.696 1918 -15.5L113.5 -138L-32 -67.5V266V726.5C27.5 737.5 52.5 700.3 146.5 557.5C240.5 414.7 301.5 266 607 303.5Z" fill="#F0B3AB"/>
</g>
<defs>
<clipPath id="clip0_143_26">
<rect width="1920" height="1080" fill="white"/>
</clipPath>
</defs>
</svg>
